<svg xmlns="http://www.w3.org/2000/svg" width="22" height="19" viewBox="0 0 22 19">
  <path data-name="Forma 1" d="M22 6.33c-.04-.6-.79-1.07-2.28-1.43a.8.8 0 0 0 .08-.33V2.11h-.01C19.66.06 10.91 0 9.9 0S.14.06.01 2.11H0v2.46c0 .67.9 1.19 2.24 1.58a.566.566 0 0 0-.03.18H2.2v2.46C.76 9.14.04 9.61 0 10.2v2.46a1.575 1.575 0 0 0 1.15 1.19.851.851 0 0 0-.04.22H1.1v2.46c0 1.17 2.75 1.9 5.8 2.24.02 0 .04.01.07.01h.02c.58.06 1.18.11 1.77.15h.06c.75.04 1.49.07 2.18.07s1.43-.03 2.18-.07h.06c.59-.04 1.19-.09 1.77-.15h.02c.03 0 .05-.01.07-.01 3.05-.34 5.8-1.07 5.8-2.24v-2.46h-.01a1.479 1.479 0 0 0-1.16-1.09.876.876 0 0 0 .07-.32v-2.3c1.32-.39 2.2-.91 2.2-1.57V6.33zm-2.97 6.45l-.13.1a3.384 3.384 0 0 1-.93.49v-1.68a6.808 6.808 0 0 0 1.1-.48v1.45a.284.284 0 0 1-.04.12zm-8.2 1.63h-.17c-.13.01-.26.01-.39.01v-1.76h.36c.37-.01.74-.02 1.1-.04v1.76c-.08 0-.15.01-.23.01-.22.01-.45.02-.67.02zm-1.61.01c-.16-.01-.33-.01-.5-.02h-.06c-.2 0-.4-.01-.59-.02v-1.76c.36.02.73.03 1.1.04h.36v1.76h-.31zm-6.62-.81a.037.037 0 0 1-.03-.01v-1.69c.34.08.71.16 1.1.24v1.71a9.249 9.249 0 0 1-.93-.21.737.737 0 0 1-.14-.04zm7.73 2.92h.3v1.76c-.5 0-.99-.02-1.46-.04v-1.76c.36.02.73.03 1.1.04h.06zm1.4 0c.37-.01.74-.02 1.1-.04v1.76c-.47.02-.96.04-1.46.04v-1.76h.36zm2.94-.16v1.75c-.36.03-.72.06-1.1.09v-1.76c.37-.02.74-.05 1.1-.08zm.73-.08c.38-.04.74-.09 1.1-.15v1.73c-.35.06-.71.11-1.1.16v-1.74zm1.83-.27c.39-.08.76-.16 1.1-.24v1.69c-.32.1-.69.18-1.1.27v-1.72zm-12.46 0v1.72c-.41-.09-.78-.17-1.1-.27v-1.69c.34.08.71.16 1.1.24zm.73.12c.35.06.72.11 1.1.15v1.74c-.39-.05-.75-.1-1.1-.16v-1.73zm1.83.23c.36.03.73.06 1.1.08v1.76c-.38-.03-.74-.06-1.1-.09v-1.75zm-.91-2.11a.448.448 0 0 1-.11-.01h-.08V12.5c.36.03.73.06 1.1.08v1.76c-.3-.02-.61-.05-.91-.08zm-.92-1.84v1.74c-.39-.05-.75-.1-1.1-.16v-1.73c.35.06.72.11 1.1.15zm7.21 1.9c-.08.01-.16.01-.24.02v-1.76c.37-.02.74-.05 1.1-.08v1.75l-.7.06c-.05 0-.11.01-.16.01zm1.59-.16v-1.74c.38-.04.74-.09 1.1-.15V14c-.35.06-.71.11-1.1.16zm1.83-2.01c.39-.08.76-.16 1.1-.24v1.69c-.32.09-.69.18-1.1.26v-1.71zm-5.01-1.61l-.81-.03h-.04V8.75c.36.02.73.03 1.1.04h.36v1.76c-.18 0-.36 0-.53-.01h-.08zM2.57 5.51v-1.7c.34.09.71.17 1.1.25v1.71c-.05-.01-.1-.02-.14-.03l-.57-.12c-.14-.04-.27-.07-.39-.11zm6.66-.94h.3v1.76c-.49-.01-.98-.02-1.46-.04V4.53c.36.02.73.03 1.1.03.02 0 .04.01.06.01zm1.4-.01c.37 0 .74-.01 1.1-.03v1.76a1.087 1.087 0 0 0-.18.01h-.02c-.24.01-.49.01-.75.02h-.12c-.13 0-.26 0-.39.01V4.57h.3c.02 0 .04-.01.06-.01zm8.35.18h-.01l-.13.1a3.681 3.681 0 0 1-.87.43V3.6a6.008 6.008 0 0 0 1.1-.49v1.46a.259.259 0 0 1-.09.17zM14.3 6.07V4.33c.38-.04.74-.1 1.1-.15v1.73c-.35.05-.71.11-1.1.16zm1.83-.3V4.06c.39-.08.76-.16 1.1-.25v1.7c-.33.09-.7.18-1.1.26zM13.57 4.4v1.75c-.36.04-.72.07-1.1.09V4.49c.37-.02.74-.05 1.1-.09zM6.23 6.15V4.4c.36.04.73.07 1.1.09v1.75c-.37-.02-.74-.05-1.1-.09zM5.5 4.33v1.74l-.22-.03c-.05-.01-.09-.01-.14-.02l-.62-.09c-.04-.01-.08-.01-.12-.02V4.18c.35.05.72.11 1.1.15zm3.94 6.13c-.05 0-.1-.01-.15-.01l-.68-.06c-.05 0-.1-.01-.15-.01a.037.037 0 0 1-.03-.01V8.63c.36.03.73.06 1.1.08v1.76a.277.277 0 0 0-.09-.01zm-2.42-.26a7.35 7.35 0 0 0-.42-.07V8.4c.35.06.72.11 1.1.15v1.74l-.66-.09h-.02zM5.87 8.28v1.71c-.41-.08-.78-.17-1.1-.26v-1.7c.34.09.71.17 1.1.25zm-1.84-.46v1.67a2.254 2.254 0 0 1-1.07-.63l-.02-.03a.227.227 0 0 0-.01-.04V7.33a6.008 6.008 0 0 0 1.1.49zm8.8.97c.37-.01.74-.02 1.1-.04v1.76c-.48.02-.97.03-1.46.04V8.79h.36zm4.74 1.35c-.17.02-.33.05-.49.07-.1.02-.2.03-.3.04a2.7 2.7 0 0 1-.28.04V8.55c.38-.04.75-.09 1.1-.15v1.73a.037.037 0 0 0-.03.01zm-2.49.3c-.13.01-.28.01-.41.02V8.71c.37-.02.74-.05 1.1-.08v1.74c-.22.03-.43.05-.65.06a.227.227 0 0 1-.04.01zm4.19-.66c-.18.05-.37.09-.57.14-.09.02-.18.04-.28.06-.03 0-.06.01-.09.01V8.28c.39-.08.76-.16 1.1-.25v1.7c-.05.02-.1.03-.16.05zm1.99-3.43c-.03.24-.6.56-1.6.86a25.43 25.43 0 0 1-5.9.84c-.13.01-.27.02-.4.02-.11 0-.22.01-.33.01-.3.01-.61.01-.93.01s-.63 0-.93-.01c-.11 0-.22-.01-.33-.01-.14 0-.27-.01-.4-.02a25.43 25.43 0 0 1-5.9-.84c-1-.3-1.56-.61-1.6-.85v-.02a.188.188 0 0 1 .08.02l.44.09c.73.15 1.54.27 2.4.37h.01c.58.06 1.19.11 1.82.15h.02c.45.02.9.04 1.36.05.28.01.56.01.83.01h.59a28.758 28.758 0 0 0 6.85-.82c.08-.02.16-.04.23-.06a1.026 1.026 0 0 1 .14-.04c.13-.04.26-.09.38-.13a.637.637 0 0 0 .07-.02l.3-.12a.689.689 0 0 1 .08-.03c.1-.05.2-.09.29-.14l.12-.06c.04-.03.08-.05.12-.08a.3.3 0 0 0 .08-.04c1.64.34 2.07.72 2.11.86zM9.9.7c6.05 0 9.1.91 9.16 1.44a2.522 2.522 0 0 1-1.6.85 25.988 25.988 0 0 1-5.9.84c-.13.01-.27.01-.4.02-.11 0-.22 0-.33.01-.3 0-.61.01-.93.01s-.63-.01-.93-.01c-.11-.01-.22-.01-.33-.01-.14-.01-.27-.01-.4-.02a25.988 25.988 0 0 1-5.9-.84 2.522 2.522 0 0 1-1.6-.85C.8 1.61 3.85.7 9.9.7zM.73 4.57V3.11a6.008 6.008 0 0 0 1.1.49v1.68a1.535 1.535 0 0 1-1.1-.71zm1.78 4.87a.038.038 0 0 0 .02.02 6.491 6.491 0 0 0 2.83 1.15c.03.01.07.01.1.02l.28.06a28.928 28.928 0 0 0 4.16.5c.5.03 1 .05 1.52.06.23 0 .46.01.68.01.25 0 .51-.01.78-.01q.72-.015 1.41-.06h.02a29.1 29.1 0 0 0 4.23-.52 5.734 5.734 0 0 1-1.08.41 26.875 26.875 0 0 1-6.34.86c-.08 0-.16.01-.25.01h-.27c-.23.01-.46.01-.7.01-.32 0-.63 0-.93-.01-.11 0-.22-.01-.33-.01-.14 0-.27-.01-.4-.02a25.43 25.43 0 0 1-5.9-.84c-1.01-.3-1.57-.62-1.6-.86.04-.13.41-.46 1.77-.78zM.73 12.66v-1.45a6.808 6.808 0 0 0 1.1.48v1.68l-.21-.08a1.255 1.255 0 0 1-.89-.63zm1.1 3.87v-1.45a6.808 6.808 0 0 0 1.1.48v1.68a1.535 1.535 0 0 1-1.1-.71zm17.24.71v-1.68a6.808 6.808 0 0 0 1.1-.48v1.45a1.535 1.535 0 0 1-1.1.71zm1.09-3.14c-.04.24-.6.55-1.6.85a25.43 25.43 0 0 1-5.9.84c-.13.01-.27.02-.4.02-.11 0-.22.01-.33.01-.3.01-.61.01-.93.01s-.63 0-.93-.01c-.11 0-.22-.01-.33-.01-.13 0-.27-.01-.4-.02a25.43 25.43 0 0 1-5.9-.84 2.671 2.671 0 0 1-1.6-.83c.11.04.22.07.34.11a.227.227 0 0 0 .04.01c.09.03.2.05.3.08l.12.03c.06.02.12.03.18.05a27.2 27.2 0 0 0 4.88.66q.855.06 1.74.06c.15 0 .31.01.46.01.2 0 .41-.01.62-.01.53-.01 1.06-.03 1.58-.06q.945-.045 1.83-.15h.03c.65-.07 1.26-.16 1.84-.27l.35-.06c.02-.01.05-.01.07-.02a10.171 10.171 0 0 0 2.67-.83.467.467 0 0 1 .1-.05.746.746 0 0 1 .12-.07.607.607 0 0 1 .1-.07 1.481 1.481 0 0 1 .95.56zm.01-4.6V7.82a6.008 6.008 0 0 0 1.1-.49v1.46a1.535 1.535 0 0 1-1.1.71z" fill="#8a387a" fill-rule="evenodd"/>
</svg>
