<svg class="svg-name-v2" xmlns="http://www.w3.org/2000/svg" width="118" height="150" viewBox="0 0 152.1 192.1" fill="#8a387a">
  <path d="M1.7 147c.3-3.5.8-7.1 1.7-10.6 2.4-8.8 7.8-14.4 16.5-17.8 9.4-3.6 18.3-8.6 27.2-13.3 2.9-1.6 5.4-2.9 7.7.5 2.2 3.4.3 5.9-2.5 7.4-9.1 4.8-18.1 9.9-27.5 13.9-9.8 4.1-13.5 8.1-14 18.7-.2 4.7.1 9.3-.1 14-.2 3.5 1.5 5.4 4.4 6.9 14.1 7.2 29 11.5 44.7 13.2 24.7 2.7 48.8-.4 71.7-10.6.3-.1.6-.3.9-.4 6.7-2.1 10.1-6.2 9.1-13.6-.7-5.1-.5-10.3-1.2-15.4-1-6.3-5.1-9.8-11-12.3-9.6-4-18.9-8.9-28.2-13.6-1.4-.7-3.2-1.9-3.6-3.3-.5-1.8-.4-4.4.6-5.7.8-1 3.8-1.4 5.1-.8 11.1 5.1 22.1 10.5 33.1 15.9 8.6 4.3 12 12 13.5 20.9.3 1.8.7 3.7.8 5.5v12.3c0 1.4-.1 2.9-.4 4.4-.5 5.7-3.2 8.9-8.1 11.5-11.8 6-24.1 10.5-37.1 12.9-7 1.3-13.8 2.2-21 2.7l-15.7-.1c-1.9 0-4.2-.3-6.2-.4-16.6-1.4-32.3-5.6-47.4-12.5-7.3-3.4-13.3-6.9-13.2-16.5v-6.3c.2-4 .2-3.5.2-7.5z"/>
  <path d="M79.1 1.3c2.5.1 4.7.6 6.9 1.2 13.9 3.7 22.3 13.1 25.5 26.8 4 16.7 3.4 33.4-2.6 49.6-7 19-23.6 27.8-42.5 22.8-9.8-2.6-16.6-9-21-17.9-6.5-13.2-7.9-27.4-6.6-41.8.5-5.9 1.6-11.9 3.6-17.5C46.9 12.1 56.1 4.8 69 2.1c1.1-.3 2.3-.6 3.4-.7 2.4-.2 4.4-.1 6.7-.1zm26.3 48.3c-1-6.4-1.3-12.9-3-19.1-3.4-12.3-13.1-19.1-26-19.3-12.7-.1-22.8 6.4-26.2 18.4-4.6 16.3-4.1 32.6 2.6 48.3 4.3 10 12.2 15.2 23.1 15.2 11.2.1 19-5.2 23.7-15.2 4.2-8.9 5.2-18.4 5.8-28.3z"/>
</svg>
