<svg class="svg-world" xmlns="http://www.w3.org/2000/svg" width="100" height="100" viewBox="0 0 91 91">
  <path d="M56.8 89.7c-1.2.3-13.1.1-14.8.1-8.5.1-15.8-2.8-22.4-7.3-7-4.8-12.2-11.4-15.5-19.4-1.5-3.6-2.9-7.3-2.8-11.3 0-3.3.1-6.7 0-10-.2-5.9 2.2-13 5.8-19.6 3.1-5.7 7.8-9.2 12.2-13.9C25.8 3.8 33.2.7 41.6.8c3.3 0 6.7-.1 10 0 8.5.3 15.8 3.6 22.2 9 1.5 1.2 3.2 2.2 4.5 3.6 4.9 5.6 8.9 11.7 11.1 18.9.6 2 1 4 .9 6.1 0 4.3-.1 8.7 0 13 .2 6.6-2.7 12.2-5.8 17.6-1.6 2.9-3.7 5.6-6 8-5.9 6.4-12.5 10.7-21.7 12.7M20.2 76.2c2.3 2.6 5.2 4.2 8.1 5.6 4.1 1.9 8.4 3.4 12.8 3.9 5.6.6 11.2-.1 16.7-1.8 6.8-2.2 12.7-5.8 17.5-10.8 4.6-4.9 7.8-10.9 9.7-17.4.4-1.5-.5-3.3 1.2-4.4-1.8-2.6-1.6-6.3-4.2-8.2-1.7 1.2-3.2 2.1-4.6 3.1-.4.3-.8.9-.8 1.4-.1 3.5-.2 4-1.8 6.2-1.4 2-2.9 3.8-4.3 5.8v5.2c1.5-2.6 2.6-4.3 3.7-6.3 2.2 4.4 2.3 4.4 1 9.9-.6 2.7-3.1 3.9-5.1 5.9-1.4-1.6-2.5-2.9-4.2-4.9 1.4 4.1-1.2 5.4-3 7.3-3.2 3.5-7.3 3.8-11.6 4.1-.1-4.8.1-4.9-2.1-9-1.1-2.1-1-4.1-.9-6.1.2-2.8.1-4.4-1.4-6.6-.3-.5-.5-1.1-.7-1.7-.9-2.7-2.6-3.4-5.6-2.5-.9.3-1.8.6-2.7.7-.8.1-1.8.5-2.3.1-4.9-3.1-8.8-6.8-8.5-13.4.2-3.3 1-5.9 4.1-7.5 2.1-1 2.8-2.9 2.9-5.1.1-2 0-4 0-6 0-.3.2-.6.3-.7 1.3-.6 2.4-1.2 4.4-2.1-3.1 0-4.7-1.1-5.7-3 .4-1 .5-2.1 1.1-2.6 1.7-1.6 3.7-2.9 5.6-4.4.2.2.5.4.7.7.6 1.1 1 2.3 1.7 3.3.3.5 1 .7 2 1.2v-3.6c.2-2.8.8-3.7 3.8-4.7 1.2-.4 2.4-.6 3.6-1.1.4-.2.5-1.1 1-2C46.5 5 41 4 35.9 5.9c-3.3 1.2-7.1 1.6-9.1 5.7-2.1 4.3-5.3 8.3-11.3 7.1-.4 2.5-.7 4.7-1.1 6.8-.1.4-.2 1-.5 1.3-1.9 1.6-2.6 3.9-3.9 5.9-1.6 2.4-3.5 4.6-3.5 7.6 0 3.1-1.9 6-1 9.1.6 1.8.5 4 3 5.3 2.6 1.3 5.3 3 6.4 6.2.2.5.9.9 1.5 1.1 2.5.9 4.4 2.6 6.1 4.7-.4 1.5.4 3-.7 4.7-.6 1 .2 2.8.4 4.3-.7 0-1.3.2-2 .5zm27.5-51.5c-1 .4-2 .7-2.7 1.2-.4.3-.6 1-1 1.7h5.7c-.8-1.2-1.4-2.1-2-2.9zm7.5 4.7c-1.3.7-2.2 1-2.9 1.5-.4.3-.6.8-1 1.3.5.2 1 .7 1.5.7 1.6-.2 2.6-.9 2.4-3.5zm3.5-.6c-1.1 1.5-.6 2.7.7 3.6.4.3 1.1.2 1.6 0 .1 0 .3-1 .1-1.2-.7-.8-1.5-1.6-2.4-2.4z" fill="#8a387a"/>
</svg>
